<?xml version="1.0" encoding="UTF-8" standalone="no"?>
<svg
   xmlns:dc="http://purl.org/dc/elements/1.1/"
   xmlns:cc="http://creativecommons.org/ns#"
   xmlns:rdf="http://www.w3.org/1999/02/22-rdf-syntax-ns#"
   xmlns:svg="http://www.w3.org/2000/svg"
   xmlns="http://www.w3.org/2000/svg"
   xmlns:sodipodi="http://sodipodi.sourceforge.net/DTD/sodipodi-0.dtd"
   xmlns:inkscape="http://www.inkscape.org/namespaces/inkscape"
   viewBox="0 0 32 32"
   preserveAspectRatio="xMidYMid meet"
   focusable="false"
   class="style-scope ytd-topbar-logo-renderer"
   style="display:block"
   version="1.1"
   id="svg10"
   sodipodi:docname="icon.svg"
   width="32"
   height="32"
   inkscape:version="1.0.1 (1.0.1+r73)"
   inkscape:export-filename="/home/otard/Documents/js/picture-in-picture/src/icon.png"
   inkscape:export-xdpi="96"
   inkscape:export-ydpi="96">
  <metadata
     id="metadata16">
    <rdf:RDF>
      <cc:Work
         rdf:about="">
        <dc:format>image/svg+xml</dc:format>
        <dc:type
           rdf:resource="http://purl.org/dc/dcmitype/StillImage" />
        <dc:title></dc:title>
      </cc:Work>
    </rdf:RDF>
  </metadata>
  <defs
     id="defs14" />
  <sodipodi:namedview
     pagecolor="#ffffff"
     bordercolor="#666666"
     borderopacity="1"
     objecttolerance="10"
     gridtolerance="10"
     guidetolerance="10"
     inkscape:pageopacity="0"
     inkscape:pageshadow="2"
     inkscape:window-width="1920"
     inkscape:window-height="1168"
     id="namedview12"
     showgrid="false"
     inkscape:zoom="19.091883"
     inkscape:cx="15.264293"
     inkscape:cy="16.15958"
     inkscape:window-x="1920"
     inkscape:window-y="130"
     inkscape:window-maximized="1"
     inkscape:current-layer="svg10" />
  <g
     viewBox="0 0 98 24"
     preserveAspectRatio="xMidYMid meet"
     class="style-scope ytd-topbar-logo-renderer"
     id="g8"
     transform="translate(1.3,4)">
    <g
       class="style-scope ytd-topbar-logo-renderer"
       id="g6">
      <path
         fill="#ff0000"
         d="M 28.4,5.12 C 28.06,3.88 27.09,2.92 25.85,2.6 23.62,2 14.68,2 14.68,2 14.68,2 5.75,2 3.52,2.6 2.29,2.93 1.33,3.89 1,5.12 0.59,7.39 0.39,9.69 0.4,12 0.39,14.31 0.59,16.61 1,18.88 1.33,20.11 2.29,21.07 3.52,21.4 5.75,22 14.68,22 14.68,22 c 0,0 8.93,0 11.16,-0.6 1.24,-0.32 2.22,-1.28 2.56,-2.52 C 28.81,16.61 29.01,14.31 29,12 29.01,9.69 28.81,7.39 28.4,5.12 Z"
         class="style-scope ytd-topbar-logo-renderer"
         id="path2" />
      <polygon
         fill="#ffffff"
         points="11.83,16.29 19.25,12 11.83,7.71 "
         class="style-scope ytd-topbar-logo-renderer"
         id="polygon4" />
    </g>
  </g>
</svg>
